<svg xmlns="http://www.w3.org/2000/svg" width="1200" height="750" viewBox="0 0 1200 750" role="img" aria-label="Abstract cover artwork">
  <defs>
    <linearGradient id="g" x1="0" y1="0" x2="1" y2="1">
      <stop offset="0%" stop-color="#2E3A4F" />
      <stop offset="100%" stop-color="#5B7BA6" />
    </linearGradient>
    <radialGradient id="h" cx="0.7" cy="0.3" r="0.75">
      <stop offset="0%" stop-color="#fff" stop-opacity="0.28" />
      <stop offset="100%" stop-color="#fff" stop-opacity="0" />
    </radialGradient>
  </defs>
  <rect width="1200" height="750" fill="url(#g)" />
  <g stroke="#fff" stroke-width="1" opacity="0.07"><line x1="0" y1="0" x2="0" y2="750" /><line x1="60" y1="0" x2="60" y2="750" /><line x1="120" y1="0" x2="120" y2="750" /><line x1="180" y1="0" x2="180" y2="750" /><line x1="240" y1="0" x2="240" y2="750" /><line x1="300" y1="0" x2="300" y2="750" /><line x1="360" y1="0" x2="360" y2="750" /><line x1="420" y1="0" x2="420" y2="750" /><line x1="480" y1="0" x2="480" y2="750" /><line x1="540" y1="0" x2="540" y2="750" /><line x1="600" y1="0" x2="600" y2="750" /><line x1="660" y1="0" x2="660" y2="750" /><line x1="720" y1="0" x2="720" y2="750" /><line x1="780" y1="0" x2="780" y2="750" /><line x1="840" y1="0" x2="840" y2="750" /><line x1="900" y1="0" x2="900" y2="750" /><line x1="960" y1="0" x2="960" y2="750" /><line x1="1020" y1="0" x2="1020" y2="750" /><line x1="1080" y1="0" x2="1080" y2="750" /><line x1="1140" y1="0" x2="1140" y2="750" /><line x1="1200" y1="0" x2="1200" y2="750" /><line x1="0" y1="0" x2="1200" y2="0" /><line x1="0" y1="60" x2="1200" y2="60" /><line x1="0" y1="120" x2="1200" y2="120" /><line x1="0" y1="180" x2="1200" y2="180" /><line x1="0" y1="240" x2="1200" y2="240" /><line x1="0" y1="300" x2="1200" y2="300" /><line x1="0" y1="360" x2="1200" y2="360" /><line x1="0" y1="420" x2="1200" y2="420" /><line x1="0" y1="480" x2="1200" y2="480" /><line x1="0" y1="540" x2="1200" y2="540" /><line x1="0" y1="600" x2="1200" y2="600" /><line x1="0" y1="660" x2="1200" y2="660" /><line x1="0" y1="720" x2="1200" y2="720" /></g>
  <rect width="1200" height="750" fill="url(#h)" />
  <rect x="60" y="42.0" width="1080.0" height="669.0" rx="28.0" fill="none" stroke="#fff" stroke-width="1.5" opacity="0.45" /><rect x="105" y="73.5" width="990.0" height="608.3" rx="25.0" fill="none" stroke="#fff" stroke-width="1.5" opacity="0.40" /><rect x="150" y="105.0" width="900.0" height="547.5" rx="22.0" fill="none" stroke="#fff" stroke-width="1.5" opacity="0.35" /><rect x="195" y="136.5" width="810.0" height="486.8" rx="19.0" fill="none" stroke="#fff" stroke-width="1.5" opacity="0.30" /><rect x="240" y="168.0" width="720.0" height="426.0" rx="16.0" fill="none" stroke="#fff" stroke-width="1.5" opacity="0.25" /><rect x="285" y="199.5" width="630.0" height="365.3" rx="13.0" fill="none" stroke="#fff" stroke-width="1.5" opacity="0.20" /><rect x="330" y="231.0" width="540.0" height="304.5" rx="10.0" fill="none" stroke="#fff" stroke-width="1.5" opacity="0.15" /><circle cx="643.6" cy="442.3" r="2.0" fill="#fff" opacity="0.5" /><circle cx="1029.3" cy="283.8" r="2.6" fill="#fff" opacity="0.5" /><circle cx="567.6" cy="249.9" r="2.7" fill="#fff" opacity="0.5" /><circle cx="385.8" cy="34.7" r="2.8" fill="#fff" opacity="0.5" /><circle cx="1179.9" cy="174.9" r="2.1" fill="#fff" opacity="0.5" /><circle cx="317.1" cy="405.1" r="2.9" fill="#fff" opacity="0.5" /><circle cx="160.9" cy="595.5" r="2.4" fill="#fff" opacity="0.5" /><circle cx="998.9" cy="23.2" r="4.5" fill="#fff" opacity="0.5" /><circle cx="1058.1" cy="406.2" r="4.2" fill="#fff" opacity="0.5" /><circle cx="179.3" cy="382.5" r="2.6" fill="#fff" opacity="0.5" /><circle cx="904.5" cy="343.1" r="2.9" fill="#fff" opacity="0.5" /><circle cx="988.2" cy="135.7" r="3.3" fill="#fff" opacity="0.5" /><circle cx="498.3" cy="740.3" r="2.8" fill="#fff" opacity="0.5" /><circle cx="156.6" cy="575.6" r="4.4" fill="#fff" opacity="0.5" />
</svg>
