<svg xmlns="http://www.w3.org/2000/svg" width="1200" height="750" viewBox="0 0 1200 750" role="img" aria-label="Abstract cover artwork">
  <defs>
    <linearGradient id="g" x1="0" y1="0" x2="1" y2="1">
      <stop offset="0%" stop-color="#2B2F77" />
      <stop offset="100%" stop-color="#6C5CE0" />
    </linearGradient>
    <radialGradient id="h" cx="0.7" cy="0.3" r="0.75">
      <stop offset="0%" stop-color="#fff" stop-opacity="0.28" />
      <stop offset="100%" stop-color="#fff" stop-opacity="0" />
    </radialGradient>
  </defs>
  <rect width="1200" height="750" fill="url(#g)" />
  <g stroke="#fff" stroke-width="1" opacity="0.07"><line x1="0" y1="0" x2="0" y2="750" /><line x1="60" y1="0" x2="60" y2="750" /><line x1="120" y1="0" x2="120" y2="750" /><line x1="180" y1="0" x2="180" y2="750" /><line x1="240" y1="0" x2="240" y2="750" /><line x1="300" y1="0" x2="300" y2="750" /><line x1="360" y1="0" x2="360" y2="750" /><line x1="420" y1="0" x2="420" y2="750" /><line x1="480" y1="0" x2="480" y2="750" /><line x1="540" y1="0" x2="540" y2="750" /><line x1="600" y1="0" x2="600" y2="750" /><line x1="660" y1="0" x2="660" y2="750" /><line x1="720" y1="0" x2="720" y2="750" /><line x1="780" y1="0" x2="780" y2="750" /><line x1="840" y1="0" x2="840" y2="750" /><line x1="900" y1="0" x2="900" y2="750" /><line x1="960" y1="0" x2="960" y2="750" /><line x1="1020" y1="0" x2="1020" y2="750" /><line x1="1080" y1="0" x2="1080" y2="750" /><line x1="1140" y1="0" x2="1140" y2="750" /><line x1="1200" y1="0" x2="1200" y2="750" /><line x1="0" y1="0" x2="1200" y2="0" /><line x1="0" y1="60" x2="1200" y2="60" /><line x1="0" y1="120" x2="1200" y2="120" /><line x1="0" y1="180" x2="1200" y2="180" /><line x1="0" y1="240" x2="1200" y2="240" /><line x1="0" y1="300" x2="1200" y2="300" /><line x1="0" y1="360" x2="1200" y2="360" /><line x1="0" y1="420" x2="1200" y2="420" /><line x1="0" y1="480" x2="1200" y2="480" /><line x1="0" y1="540" x2="1200" y2="540" /><line x1="0" y1="600" x2="1200" y2="600" /><line x1="0" y1="660" x2="1200" y2="660" /><line x1="0" y1="720" x2="1200" y2="720" /></g>
  <rect width="1200" height="750" fill="url(#h)" />
  <circle cx="744" cy="375" r="70" fill="none" stroke="#fff" stroke-width="1.5" opacity="0.42" /><circle cx="724.0" cy="307.9" r="7.8" fill="#fff" opacity="0.60" /><circle cx="704.1" cy="432.5" r="8.0" fill="#fff" opacity="0.54" /><circle cx="744" cy="375" r="132" fill="none" stroke="#fff" stroke-width="1.5" opacity="0.36" /><circle cx="639.9" cy="293.8" r="6.2" fill="#fff" opacity="0.71" /><circle cx="860.5" cy="313.0" r="6.2" fill="#fff" opacity="0.62" /><circle cx="691.8" cy="253.7" r="7.6" fill="#fff" opacity="0.74" /><circle cx="744" cy="375" r="194" fill="none" stroke="#fff" stroke-width="1.5" opacity="0.30" /><circle cx="906.7" cy="480.7" r="6.8" fill="#fff" opacity="0.76" /><circle cx="774.5" cy="183.4" r="8.9" fill="#fff" opacity="0.77" /><circle cx="882.1" cy="238.8" r="5.9" fill="#fff" opacity="0.82" /><circle cx="697.5" cy="186.7" r="6.7" fill="#fff" opacity="0.65" /><circle cx="744" cy="375" r="256" fill="none" stroke="#fff" stroke-width="1.5" opacity="0.24" /><circle cx="492.0" cy="419.8" r="8.7" fill="#fff" opacity="0.59" /><circle cx="520.3" cy="250.5" r="5.3" fill="#fff" opacity="0.54" /><circle cx="676.4" cy="621.9" r="7.1" fill="#fff" opacity="0.65" /><circle cx="488.2" cy="384.1" r="5.6" fill="#fff" opacity="0.66" /><circle cx="526.7" cy="510.4" r="5.8" fill="#fff" opacity="0.85" /><circle cx="744" cy="375" r="318" fill="none" stroke="#fff" stroke-width="1.5" opacity="0.18" /><circle cx="1060.8" cy="402.9" r="7.0" fill="#fff" opacity="0.51" /><circle cx="1014.0" cy="543.1" r="5.3" fill="#fff" opacity="0.88" /><circle cx="877.9" cy="86.6" r="8.5" fill="#fff" opacity="0.61" /><circle cx="1056.2" cy="314.4" r="7.9" fill="#fff" opacity="0.85" /><circle cx="974.1" cy="155.5" r="8.3" fill="#fff" opacity="0.65" /><circle cx="970.9" cy="152.2" r="7.9" fill="#fff" opacity="0.57" /><circle cx="744" cy="375" r="16" fill="#fff" opacity="0.9" />
</svg>
